<svg xmlns="http://www.w3.org/2000/svg" xmlns:xlink="http://www.w3.org/1999/xlink" viewBox="0 0 381.4 416.44"><defs><radialGradient id="a" cx="9.68" cy="87.88" r="449.83" gradientUnits="userSpaceOnUse"><stop offset="0" stop-color="#FE9D01"/><stop offset="1" stop-color="#BE3941"/></radialGradient><radialGradient id="b" cx="11.24" cy="89.04" r="447.6" xlink:href="#a"/><radialGradient id="c" cx="9.2" cy="87.41" r="451.09" xlink:href="#a"/></defs><path d="M183,0C124.34,29.33,64.66,58.67,6,88c60.33,30.16,120.17,60.84,180.5,91,58.66-29.33,117.84-59.17,176.5-88.5V90C302.67,60,243.33,30,183,0ZM287,90,185.5,141,82,89.5v-1l100.5-51L287,89.5Z" fill-rule="evenodd" fill="url(#a)"/><path d="M368,100.13V320l-37-29.6V166.23L229,217V348.84l97.3-48.65,55.1,43.69C362,353.45,354,357.62,333.75,367.71c-5.79-4.84-12-9.68-17.88-14.4-40.53,20.19-83.07,42.95-123.61,63.13.17-75.78.09-153.47,0-229C250.51,158.32,309.76,129.25,368,100.13Z" fill-rule="evenodd" fill="url(#b)"/><path d="M0,98.06V325.19c60,29.91,120,61.34,180,91.25V187.31ZM142,348.44,38,296.69V165.06l104,51.75Z" fill-rule="evenodd" fill="url(#c)"/></svg>